<?xml version="1.0" encoding="UTF-8"?>
<!DOCTYPE svg PUBLIC "-//W3C//DTD SVG 1.1//EN" "http://www.w3.org/Graphics/SVG/1.1/DTD/svg11.dtd">
<!-- Creator: CorelDRAW 2020 (64-Bit Versión de evaluación) -->
<svg xmlns="http://www.w3.org/2000/svg" xml:space="preserve" width="67.7333mm" height="67.7334mm" version="1.1" style="shape-rendering:geometricPrecision; text-rendering:geometricPrecision; image-rendering:optimizeQuality; fill-rule:evenodd; clip-rule:evenodd"
viewBox="0 0 6773.28 6773.29"
 xmlns:xlink="http://www.w3.org/1999/xlink"
 xmlns:xodm="http://www.corel.com/coreldraw/odm/2003">
 <defs>
  <style type="text/css">
   <![CDATA[
    .fil0 {fill:#373435;fill-rule:nonzero}
   ]]>
  </style>
 </defs>
 <g id="Capa_x0020_1">
  <metadata id="CorelCorpID_0Corel-Layer"/>
  <g>
   <path class="fil0" d="M5771.15 5771.26l-1003.58 0 0 -1571.69c0,-374.78 -6.69,-857.24 -521.97,-857.24 -522.71,0 -602.69,408.36 -602.69,829.96l0 1598.87 -1003.56 -0.01 0 -3232.02 963.42 0 0 441.7 13.5 0c189.18,-323.67 536.45,-522.83 911.43,-522.83 13.02,0 26.3,0.39 39.19,0.77 1017.18,0 1204.72,669.08 1204.72,1539.49l-0.42 1773.04 -0.05 -0.04zm-4264.2 -3673.89c-321.65,0.05 -582.45,-260.67 -582.51,-582.32 -0.05,-321.65 260.64,-582.45 582.3,-582.51 321.65,-0.08 582.45,260.64 582.51,582.3 0.01,0.03 0.01,0.1 0.01,0.1 0,321.61 -260.68,582.36 -582.29,582.43l-0.02 0zm501.81 3673.92l-1004.64 0 0 -3232.16 1004.61 0 0 3232.13 0.03 0.03zm4262.72 -5770.79l-5771.66 0c-272.78,-3.07 -496.49,215.45 -499.82,488.24l0 5795.74c3.23,272.92 226.91,491.65 499.8,488.79l5771.68 -0.01c273.47,3.39 498.03,-215.34 501.81,-488.79l0 -5796.18c-3.89,-273.31 -228.47,-491.81 -501.81,-488.24l0 0.45zm0 0l0 0 0 0z"/>
  </g>
 </g>
</svg>
