<?xml version="1.0" encoding="UTF-8"?>
<!DOCTYPE svg PUBLIC "-//W3C//DTD SVG 1.1//EN" "http://www.w3.org/Graphics/SVG/1.1/DTD/svg11.dtd">
<!-- Creator: CorelDRAW 2020 (64-Bit Versión de evaluación) -->
<svg xmlns="http://www.w3.org/2000/svg" xml:space="preserve" width="4.2334mm" height="4.2328mm" version="1.1" style="shape-rendering:geometricPrecision; text-rendering:geometricPrecision; image-rendering:optimizeQuality; fill-rule:evenodd; clip-rule:evenodd"
viewBox="0 0 423.32 423.26"
 xmlns:xlink="http://www.w3.org/1999/xlink"
 xmlns:xodm="http://www.corel.com/coreldraw/odm/2003">
 <defs>
  <style type="text/css">
   <![CDATA[
    .fil0 {fill:#FEFEFE;fill-rule:nonzero}
   ]]>
  </style>
 </defs>
 <g id="Capa_x0020_1">
  <metadata id="CorelCorpID_0Corel-Layer"/>
  <path class="fil0" d="M310.68 273.63c21.61,-29.49 33.26,-65.11 33.26,-101.66 0,-94.97 -77.01,-171.97 -171.96,-171.97 -94.97,0 -171.97,77.01 -171.97,171.97 0,94.96 77.01,171.96 171.97,171.96 36.6,0 72.24,-11.69 101.74,-33.34l-0.02 0.02c0.78,1.06 1.64,2.07 2.59,3.04l101.86 101.86c4.98,4.96 11.71,7.75 18.73,7.75 14.61,0 26.46,-11.85 26.46,-26.46 0,-7.01 -2.79,-13.75 -7.74,-18.7l-101.86 -101.86c-0.95,-0.97 -1.97,-1.86 -3.05,-2.66l0 0.04zm6.82 -101.71c0,80.34 -65.17,145.5 -145.5,145.5 -80.35,0 -145.51,-65.17 -145.51,-145.5 0,-80.35 65.17,-145.51 145.51,-145.51 80.34,0 145.5,65.17 145.5,145.51z"/>
 </g>
</svg>
