<?xml version="1.0" encoding="UTF-8"?>
<!DOCTYPE svg PUBLIC "-//W3C//DTD SVG 1.1//EN" "http://www.w3.org/Graphics/SVG/1.1/DTD/svg11.dtd">
<!-- Creator: CorelDRAW 2020 (64-Bit Versión de evaluación) -->
<svg xmlns="http://www.w3.org/2000/svg" xml:space="preserve" width="3.7042mm" height="4.2333mm" version="1.1" style="shape-rendering:geometricPrecision; text-rendering:geometricPrecision; image-rendering:optimizeQuality; fill-rule:evenodd; clip-rule:evenodd"
viewBox="0 0 67.97 77.68"
 xmlns:xlink="http://www.w3.org/1999/xlink"
 xmlns:xodm="http://www.corel.com/coreldraw/odm/2003">
 <defs>
  <style type="text/css">
   <![CDATA[
    .fil0 {fill:#FEFEFE;fill-rule:nonzero}
   ]]>
  </style>
 </defs>
 <g id="Capa_x0020_1">
  <metadata id="CorelCorpID_0Corel-Layer"/>
  <g>
   <path id="shopping-bag.svg" class="fil0" d="M33.98 4.85c6.7,0 12.14,5.43 12.14,12.14l0 2.43 -24.28 0 0 -2.43c0,-6.7 5.44,-12.14 12.14,-12.14l0 0zm16.99 14.57l0 -2.43c0,-9.38 -7.61,-16.99 -16.99,-16.99 -9.38,0 -16.99,7.61 -16.99,16.99l-0 2.43 -16.99 0 0 48.55c0,5.36 4.35,9.71 9.71,9.71l48.55 0c5.36,-0 9.71,-4.35 9.71,-9.71l0 -48.55 -16.99 0zm-46.12 4.85l58.26 0 0 43.69c0,2.68 -2.17,4.85 -4.86,4.85l-48.55 0c-2.68,-0 -4.85,-2.18 -4.85,-4.86l-0 -43.69z"/>
  </g>
 </g>
</svg>
