<?xml version="1.0" encoding="UTF-8"?>
<!DOCTYPE svg PUBLIC "-//W3C//DTD SVG 1.1//EN" "http://www.w3.org/Graphics/SVG/1.1/DTD/svg11.dtd">
<!-- Creator: CorelDRAW 2020 (64-Bit Versión de evaluación) -->
<svg xmlns="http://www.w3.org/2000/svg" xml:space="preserve" width="67.7334mm" height="66.0615mm" version="1.1" style="shape-rendering:geometricPrecision; text-rendering:geometricPrecision; image-rendering:optimizeQuality; fill-rule:evenodd; clip-rule:evenodd"
viewBox="0 0 6773.34 6606.15"
 xmlns:xlink="http://www.w3.org/1999/xlink"
 xmlns:xodm="http://www.corel.com/coreldraw/odm/2003">
 <defs>
  <style type="text/css">
   <![CDATA[
    .fil0 {fill:#373435;fill-rule:nonzero}
   ]]>
  </style>
 </defs>
 <g id="Capa_x0020_1">
  <metadata id="CorelCorpID_0Corel-Layer"/>
  <path class="fil0" d="M3386.7 0c-1870.18,0 -3386.7,1516.25 -3386.7,3386.69 0,1496.32 970.39,2765.82 2316.03,3213.63 169.25,31.35 231.4,-73.47 231.4,-162.93 0,-80.75 -3.18,-347.53 -4.6,-630.5 -942.18,204.84 -1140.99,-399.6 -1140.99,-399.6 -154.07,-391.45 -376.05,-495.56 -376.05,-495.56 -307.26,-210.19 23.18,-205.85 23.18,-205.85 340.07,23.87 519.14,348.99 519.14,348.99 302.07,517.74 792.29,368.06 985.55,281.52 30.4,-218.86 118.16,-368.3 215.03,-452.86 -752.24,-85.62 -1543,-376.03 -1543,-1673.7 0,-369.76 132.29,-671.88 348.93,-909.06 -35.16,-85.3 -151.08,-429.74 32.81,-896.25 0,0 284.4,-91.02 931.6,347.16 270.14,-75.04 559.86,-112.66 847.67,-113.96 287.81,1.3 577.77,38.89 848.41,113.96 646.4,-438.15 930.41,-347.13 930.41,-347.13 184.34,466.46 68.37,810.95 33.21,896.22 217.14,237.17 348.54,539.3 348.54,909.06 0,1300.77 -792.27,1587.18 -1546.41,1671.03 121.47,105.09 229.71,311.2 229.71,627.17 0,453.13 -3.92,817.83 -3.92,929.38 0,90.14 60.96,195.74 232.62,162.45 1344.9,-448.3 2314.07,-1717.32 2314.07,-3213.14 0,-1870.47 -1516.3,-3386.72 -3386.64,-3386.72zm-2118.26 4824.41c-7.46,16.83 -33.95,21.88 -58.05,10.32 -24.58,-11.03 -38.36,-33.97 -30.43,-50.85 7.3,-17.33 33.84,-22.17 58.34,-10.56 24.61,11.06 38.63,34.21 30.14,51.09zm166.58 148.64c-16.14,14.98 -47.73,8.02 -69.16,-15.64 -22.15,-23.6 -26.3,-55.19 -9.92,-70.38 16.67,-14.98 47.28,-7.96 69.48,15.64 22.17,23.89 26.46,55.25 9.6,70.38zm114.3 190.19c-20.77,14.42 -54.69,0.9 -75.67,-29.21 -20.74,-30.11 -20.74,-66.23 0.45,-80.7 21.03,-14.47 54.45,-1.46 75.7,28.44 20.69,30.61 20.69,66.73 -0.5,81.49l0.02 -0.02zm193.26 220.26c-18.55,20.48 -58.1,14.98 -87.05,-12.96 -29.61,-27.31 -37.84,-66.04 -19.21,-86.52 18.79,-20.53 58.55,-14.76 87.71,12.96 29.37,27.25 38.36,66.28 18.55,86.52zm249.82 74.35c-8.2,26.54 -46.3,38.6 -84.64,27.33 -38.31,-11.62 -63.37,-42.68 -55.64,-69.48 7.96,-26.72 46.22,-39.26 84.85,-27.2 38.26,11.54 63.39,42.39 55.43,69.37l0 -0.02zm284.26 31.56c0.95,27.91 -31.56,51.06 -71.83,51.59 -40.48,0.9 -73.26,-21.7 -73.71,-49.21 0,-28.18 31.8,-51.12 72.31,-51.81 40.27,-0.79 73.24,21.64 73.24,49.42l-0.01 0.01zm279.27 -10.71c4.82,27.25 -23.15,55.25 -63.16,62.71 -39.29,7.17 -75.7,-9.66 -80.7,-36.67 -4.87,-27.94 23.63,-55.93 62.87,-63.16 40.06,-6.96 75.88,9.42 80.99,37.12z"/>
 </g>
</svg>
