<?xml version="1.0" encoding="UTF-8"?>
<!DOCTYPE svg PUBLIC "-//W3C//DTD SVG 1.1//EN" "http://www.w3.org/Graphics/SVG/1.1/DTD/svg11.dtd">
<!-- Creator: CorelDRAW 2020 (64-Bit Versión de evaluación) -->
<svg xmlns="http://www.w3.org/2000/svg" xml:space="preserve" width="3.9307mm" height="4.2333mm" version="1.1" style="shape-rendering:geometricPrecision; text-rendering:geometricPrecision; image-rendering:optimizeQuality; fill-rule:evenodd; clip-rule:evenodd"
viewBox="0 0 393.1 423.36"
 xmlns:xlink="http://www.w3.org/1999/xlink"
 xmlns:xodm="http://www.corel.com/coreldraw/odm/2003">
 <defs>
  <style type="text/css">
   <![CDATA[
    .fil0 {fill:#373435;fill-rule:nonzero}
   ]]>
  </style>
 </defs>
 <g id="Capa_x0020_1">
  <metadata id="CorelCorpID_0Corel-Layer"/>
  <path id="home.svg" class="fil0" d="M207.25 4.43c-2.82,-2.82 -6.71,-4.43 -10.71,-4.43 -4,0 -7.86,1.61 -10.69,4.45l-181.43 181.43c-2.82,2.82 -4.41,6.67 -4.41,10.67 0,0.02 0,0.02 0,0.02l0 211.67c0,8.33 6.77,15.12 15.12,15.12l136.05 0c8.37,0 15.14,-6.79 15.14,-15.14l0 -120.96 60.47 0 0 120.96c0,8.33 6.77,15.12 15.12,15.12l136.07 0c8.35,0 15.12,-6.79 15.12,-15.14l0 -211.67c0,0 0,0 0,-0.02 0,-4 -1.58,-7.84 -4.41,-10.67l-40.95 -40.9 0 -99.58c0,-8.35 -6.77,-15.12 -15.12,-15.12l-30.24 0c-8.35,0 -15.12,6.77 -15.12,15.12l0 39.1 -80.01 -80.05 0 0.01zm-177.02 388.7l0 -190.29 166.31 -166.31 166.31 166.31 0 190.29 -105.84 0 0 -120.96c0,-8.35 -6.77,-15.14 -15.12,-15.14l-90.72 0.02c-8.33,-0.02 -15.1,6.75 -15.1,15.1l0 120.96 -105.86 0 0.01 0.02z"/>
 </g>
</svg>
