<?xml version="1.0" encoding="UTF-8"?>
<!DOCTYPE svg PUBLIC "-//W3C//DTD SVG 1.1//EN" "http://www.w3.org/Graphics/SVG/1.1/DTD/svg11.dtd">
<!-- Creator: CorelDRAW 2020 (64-Bit Versión de evaluación) -->
<svg xmlns="http://www.w3.org/2000/svg" xml:space="preserve" width="3.9308mm" height="4.2335mm" version="1.1" style="shape-rendering:geometricPrecision; text-rendering:geometricPrecision; image-rendering:optimizeQuality; fill-rule:evenodd; clip-rule:evenodd"
viewBox="0 0 193.44 208.34"
 xmlns:xlink="http://www.w3.org/1999/xlink"
 xmlns:xodm="http://www.corel.com/coreldraw/odm/2003">
 <defs>
  <style type="text/css">
   <![CDATA[
    .fil0 {fill:#FEFEFE;fill-rule:nonzero}
   ]]>
  </style>
 </defs>
 <g id="Capa_x0020_1">
  <metadata id="CorelCorpID_0Corel-Layer"/>
  <path id="home.svg" class="fil0" d="M101.99 2.18c-1.39,-1.39 -3.3,-2.18 -5.27,-2.18 -1.97,0 -3.87,0.79 -5.26,2.19l-89.28 89.28c-1.39,1.39 -2.17,3.28 -2.17,5.25 0,0.01 0,0.01 0,0.01l0 104.16c0,4.1 3.33,7.44 7.44,7.44l66.95 0c4.12,-0 7.45,-3.34 7.45,-7.45l0 -59.52 29.76 0 0 59.52c0,4.1 3.33,7.44 7.44,7.44l66.96 0c4.11,-0 7.44,-3.34 7.44,-7.45l0 -104.16c0,0 0,0 0,-0.01 0,-1.97 -0.78,-3.86 -2.17,-5.25l-20.15 -20.13 0 -49c0,-4.11 -3.33,-7.44 -7.44,-7.44l-14.88 0c-4.11,0 -7.44,3.33 -7.44,7.44l0 19.24 -39.37 -39.39zm-87.11 191.27l0 -93.64 81.84 -81.84 81.84 81.84 0 93.64 -52.08 0 0 -59.52c0,-4.11 -3.33,-7.45 -7.44,-7.45l-44.64 0.01c-4.1,-0.01 -7.43,3.32 -7.43,7.43l0 59.52 -52.09 0z"/>
 </g>
</svg>
