<?xml version="1.0" encoding="UTF-8"?>
<!DOCTYPE svg PUBLIC "-//W3C//DTD SVG 1.1//EN" "http://www.w3.org/Graphics/SVG/1.1/DTD/svg11.dtd">
<!-- Creator: CorelDRAW 2020 (64-Bit Versión de evaluación) -->
<svg xmlns="http://www.w3.org/2000/svg" xml:space="preserve" width="252.014mm" height="190.641mm" version="1.1" style="shape-rendering:geometricPrecision; text-rendering:geometricPrecision; image-rendering:optimizeQuality; fill-rule:evenodd; clip-rule:evenodd"
viewBox="0 0 4718.59 3569.47"
 xmlns:xlink="http://www.w3.org/1999/xlink"
 xmlns:xodm="http://www.corel.com/coreldraw/odm/2003">
 <defs>
  <style type="text/css">
   <![CDATA[
    .fil1 {fill:#333333}
    .fil2 {fill:gray}
    .fil4 {fill:#9A0019}
    .fil5 {fill:#9A004D}
    .fil3 {fill:red}
    .fil0 {fill:white;fill-rule:nonzero}
   ]]>
  </style>
 </defs>
 <g id="Capa_x0020_1">
  <metadata id="CorelCorpID_0Corel-Layer"/>
  <polygon class="fil0" points="3774.48,3569.47 3326.74,3569.47 1082.66,1627.76 1082.66,2272.59 724.11,2272.59 724.11,0 1137.96,0 3415.93,1964.9 3415.93,0 3774.48,0 "/>
  <path class="fil1" d="M1914.71 2347.7l1120.13 -711.51 178.77 154.14 -1203.79 639.67 -95.12 -82.3zm1501.22 -955.43l358.55 -225.89 0 344.62 -358.55 175.01 0 -293.74z"/>
  <polygon class="fil2" points="1006.88,3497.31 696.37,3318.03 811.78,3118.12 846.42,3102.28 999.74,3038.04 1245.46,3084.07 "/>
  <polygon class="fil2" points="992.12,2681.63 517.78,2936.54 724.11,2369.64 1061.04,2492.28 "/>
  <g id="_2229622045664">
   <polygon class="fil3" points="4261.75,25.81 -0,3564.47 4511.88,484.37 "/>
   <polygon class="fil4" points="4511.88,484.37 -0,3564.47 4718.59,567.22 "/>
   <polygon class="fil5" points="4511.88,484.37 4718.59,567.22 4468.19,106.82 4261.75,25.81 "/>
  </g>
 </g>
</svg>
