<?xml version="1.0" encoding="UTF-8"?>
<!DOCTYPE svg PUBLIC "-//W3C//DTD SVG 1.1//EN" "http://www.w3.org/Graphics/SVG/1.1/DTD/svg11.dtd">
<!-- Creator: CorelDRAW 2020 (64-Bit Versión de evaluación) -->
<svg xmlns="http://www.w3.org/2000/svg" xml:space="preserve" width="270.055mm" height="51.2704mm" version="1.1" style="shape-rendering:geometricPrecision; text-rendering:geometricPrecision; image-rendering:optimizeQuality; fill-rule:evenodd; clip-rule:evenodd"
viewBox="0 0 5577.64 1058.92"
 xmlns:xlink="http://www.w3.org/1999/xlink"
 xmlns:xodm="http://www.corel.com/coreldraw/odm/2003">
 <defs>
  <style type="text/css">
   <![CDATA[
    .fil3 {fill:#4D4D4D}
    .fil4 {fill:red}
    .fil2 {fill:white}
    .fil0 {fill:black;fill-rule:nonzero}
    .fil1 {fill:#4D4D4D;fill-rule:nonzero}
   ]]>
  </style>
 </defs>
 <g id="Capa_x0020_1">
  <metadata id="CorelCorpID_0Corel-Layer"/>
  <polygon class="fil0" points="622.97,839.89 531.53,839.89 73.23,443.34 73.23,839.89 -0,839.89 -0,110.9 84.52,110.9 549.74,512.19 549.74,110.9 622.97,110.9 "/>
  <path id="1" class="fil0" d="M1275.63 839.89l-549.74 0 0 -728.98 535.9 0 19.13 73.23 -297.09 0 0 68.85 308.93 0 -30.97 85.98c-24.77,-8.2 -54.1,-12.02 -87.62,-11.66l-190.35 0 0 437.17 291.81 0 0 75.41z"/>
  <polygon id="2" class="fil0" points="1775.64,839.89 1517.71,839.89 1517.71,184.13 1316.61,184.13 1316.61,110.9 1975.64,110.9 1975.64,184.13 1775.64,184.13 "/>
  <path id="3" class="fil1" d="M2535.77 195.24c-18.4,27.32 -47.36,47.18 -86.34,59.2 -21.13,-30.97 -43.54,-53.01 -67.58,-66.12 -24.04,-12.93 -54.28,-19.49 -90.53,-19.49 -25.5,0 -45.36,4.19 -59.2,12.75 -16.03,9.65 -24.05,22.22 -24.05,37.52 0,16.76 10.75,30.06 32.06,40.07 7.83,3.83 34.25,11.66 79.06,23.5 59.38,16.03 106.38,31.15 140.99,45.17 34.43,14.03 61.39,29.51 80.51,46.27 58.11,49.91 87.07,116.76 87.07,200.37 0,86.34 -28.23,153.92 -84.88,203.1 -30.97,26.78 -65.76,46.45 -104.56,58.84 -38.8,12.57 -84.7,18.76 -137.71,18.76 -95.81,0 -172.87,-20.77 -231.15,-62.48 -58.47,-41.17 -87.62,-91.44 -87.62,-150.82 0,-46.63 20.4,-89.99 61.39,-130.24 18.58,5.46 38.8,14.39 61.02,26.96 22.41,12.75 42.63,26.96 61.2,42.99 -26.59,14.94 -44.44,27.87 -53.73,38.25 -9.29,10.56 -14.03,23.68 -14.03,39.35 0,33.34 17.12,62.11 51.37,86.34 34.97,24.23 80.69,36.43 137.53,36.43 58.47,0 104.56,-9.65 138.44,-28.78 14.94,-8.56 27.14,-20.4 36.61,-35.15 9.47,-14.76 14.21,-29.69 14.21,-44.63 0,-33.52 -18.03,-60.84 -53.92,-82.33 -19.67,-11.66 -60.11,-26.23 -121.31,-43.72 -63.03,-18.22 -107.84,-32.79 -134.43,-43.54 -26.59,-10.93 -49.91,-24.59 -70.31,-40.99 -53.37,-42.8 -80.15,-96.54 -80.15,-161.39 0,-72.68 26.05,-126.23 77.96,-160.48 46.27,-30.24 108.93,-45.36 187.98,-45.36 61.57,0 114.21,8.56 157.75,25.68 43.53,17.12 75.78,41.71 96.36,73.95z"/>
  <path id="4" class="fil1" d="M3468.04 839.89l-257.93 0 0 -502.75c-20.22,19.67 -42.63,29.51 -67.4,29.51 -20.4,0 -45.54,-10.57 -75.23,-31.7 -22.95,-16.03 -41.71,-24.05 -56.29,-24.05 -20.77,0 -37.52,11.48 -50.27,34.25l0 494.73 -257.93 0 0 -728.98 257.93 0 0 153.19c16.57,-17.3 31.15,-29.14 43.72,-35.52 12.57,-6.38 27.32,-9.47 44.27,-9.47 25.86,0 53.37,11.29 82.7,34.06 24.77,18.76 41.35,28.23 49.91,28.23 16.21,0 25.87,-10.2 28.6,-30.6l0 -139.89 257.93 0 0 728.98z"/>
  <path id="5" class="fil1" d="M3900.29 95.6c99.27,0 183.25,37.16 251.92,111.48 66.49,72.32 99.82,165.03 99.82,278.15 0,57.01 -12.2,112.39 -36.8,166.13 -32.06,70.67 -82.15,124.96 -150.46,162.66 -50.09,27.51 -104.74,41.17 -164.12,41.17 -59.38,0 -114.21,-13.66 -164.3,-41.17 -66.49,-35.88 -116.76,-89.26 -151.01,-160.11 -28.42,-58.65 -42.63,-120.04 -42.63,-184.16 0,-110.57 37.52,-202.56 112.39,-275.96 65.76,-64.3 147.55,-97.09 245.18,-98.18zm76.32 366.5l0 -92.35c0,-84.16 -4.55,-136.98 -13.84,-158.47 -12.02,-28.23 -33.7,-42.44 -64.85,-42.44 -34.06,0 -57.2,14.76 -69.58,44.45 -4.37,10.02 -6.92,21.49 -7.83,34.61 -0.91,13.12 -1.64,51.91 -2.37,116.58l0 100.73 0 110.02c0.37,62.12 0.91,99.46 1.64,111.84 0.73,12.57 2.37,24.95 5.28,36.98 3.83,17.49 12.39,31.51 25.68,42.08 13.12,10.57 28.6,15.85 46.45,15.85 23.68,0 41.9,-7.1 54.1,-21.13 12.2,-14.03 19.85,-36.61 22.59,-67.76 1.09,-9.84 2,-86.89 2.73,-230.97z"/>
  <path id="6" class="fil1" d="M4585.92 839.89l-257.93 0 0 -728.98 337.53 0c56.83,0 98.73,2.37 125.32,6.92 26.78,4.74 53.92,14.03 81.79,28.23 42.62,22.59 75.59,54.28 98.73,95.09 21.31,37.89 32.06,80.88 32.06,129.33 0,72.31 -24.04,134.79 -72.13,187.44 -59.02,64.48 -140.62,103.1 -245,116.03 -24.96,3.1 -58.29,5.46 -100.37,6.92l0 159.02zm0 -233.71c44.44,0 78.51,-12.75 102.01,-37.89 15.3,-16.03 25.86,-35.7 31.51,-59.02 5.65,-23.5 8.56,-58.29 8.56,-104.56 0,-73.59 -5.1,-123.32 -15.48,-149 -10.38,-25.32 -24.23,-43.17 -41.9,-53.73 -17.67,-10.38 -42.44,-15.67 -74.5,-15.67 -2.19,0.18 -5.65,0.37 -10.2,0.37l0 419.5z"/>
  <rect class="fil2" x="2955.01" y="97.89" width="259.02" height="772.7"/>
  <rect class="fil3" x="2974.67" y="355.28" width="220.77" height="115.85"/>
  <polygon class="fil4" points="5492.99,0 4757.96,1058.92 5577.64,87.23 "/>
 </g>
</svg>
