<?xml version="1.0" encoding="UTF-8"?>
<!DOCTYPE svg PUBLIC "-//W3C//DTD SVG 1.1//EN" "http://www.w3.org/Graphics/SVG/1.1/DTD/svg11.dtd">
<!-- Creator: CorelDRAW 2020 (64-Bit Versión de evaluación) -->
<svg xmlns="http://www.w3.org/2000/svg" xml:space="preserve" width="252.014mm" height="190.641mm" version="1.1" style="shape-rendering:geometricPrecision; text-rendering:geometricPrecision; image-rendering:optimizeQuality; fill-rule:evenodd; clip-rule:evenodd"
viewBox="0 0 4806.01 3635.6"
 xmlns:xlink="http://www.w3.org/1999/xlink"
 xmlns:xodm="http://www.corel.com/coreldraw/odm/2003">
 <defs>
  <style type="text/css">
   <![CDATA[
    .fil1 {fill:black}
    .fil2 {fill:gray}
    .fil4 {fill:#9A0019}
    .fil5 {fill:#9A004D}
    .fil3 {fill:red}
    .fil0 {fill:#333333;fill-rule:nonzero}
   ]]>
  </style>
 </defs>
 <g id="Capa_x0020_1">
  <metadata id="CorelCorpID_0Corel-Layer"/>
  <g id="_1207221728736">
   <polygon class="fil0" points="3852.86,3635.6 3396.82,3635.6 1111.17,1657.91 1111.17,2314.69 745.97,2314.69 745.97,0 1167.49,0 3487.67,2001.31 3487.67,0 3852.86,0 "/>
   <path class="fil1" d="M1958.64 2391.2l1140.88 -724.69 182.09 156.99 -1226.09 651.52 -96.88 -83.83zm1529.03 -973.13l365.19 -230.08 0 351 -365.19 178.25 0 -299.18z"/>
   <polygon class="fil2" points="1033.99,3562.1 717.72,3379.5 835.27,3175.89 870.56,3159.76 1026.71,3094.33 1276.99,3141.21 "/>
   <polygon class="fil2" points="1018.95,2731.31 535.82,2990.94 745.98,2413.55 1089.15,2538.45 "/>
   <g>
    <polygon class="fil3" points="4340.71,31.11 -0,3635.32 4595.47,498.16 "/>
    <polygon class="fil4" points="4595.47,498.16 -0,3635.32 4806.01,582.54 "/>
    <polygon class="fil5" points="4595.47,498.16 4806.01,582.54 4550.97,113.62 4340.71,31.11 "/>
   </g>
  </g>
 </g>
</svg>
