<?xml version="1.0" encoding="UTF-8"?>
<!DOCTYPE svg PUBLIC "-//W3C//DTD SVG 1.1//EN" "http://www.w3.org/Graphics/SVG/1.1/DTD/svg11.dtd">
<!-- Creator: CorelDRAW 2020 (64-Bit Versión de evaluación) -->
<svg xmlns="http://www.w3.org/2000/svg" xml:space="preserve" width="4.2334mm" height="4.2328mm" version="1.1" style="shape-rendering:geometricPrecision; text-rendering:geometricPrecision; image-rendering:optimizeQuality; fill-rule:evenodd; clip-rule:evenodd"
viewBox="0 0 206.05 206.02"
 xmlns:xlink="http://www.w3.org/1999/xlink"
 xmlns:xodm="http://www.corel.com/coreldraw/odm/2003">
 <defs>
  <style type="text/css">
   <![CDATA[
    .fil0 {fill:#373435;fill-rule:nonzero}
   ]]>
  </style>
 </defs>
 <g id="Capa_x0020_1">
  <metadata id="CorelCorpID_0Corel-Layer"/>
  <path class="fil0" d="M151.22 133.19c10.52,-14.35 16.19,-31.69 16.19,-49.48 0,-46.22 -37.48,-83.71 -83.7,-83.71 -46.22,0 -83.71,37.48 -83.71,83.71 0,46.22 37.48,83.7 83.71,83.7 17.81,0 35.16,-5.69 49.52,-16.23l-0.01 0.01c0.38,0.52 0.8,1.01 1.26,1.48l49.58 49.58c2.42,2.41 5.7,3.77 9.12,3.77 7.11,0 12.88,-5.77 12.88,-12.88 0,-3.41 -1.36,-6.69 -3.77,-9.1l-49.58 -49.58c-0.46,-0.47 -0.96,-0.91 -1.48,-1.29l0 0.02zm3.32 -49.5c0,39.1 -31.72,70.82 -70.82,70.82 -39.11,0 -70.83,-31.72 -70.83,-70.82 0,-39.11 31.72,-70.83 70.83,-70.83 39.1,0 70.82,31.72 70.82,70.83z"/>
 </g>
</svg>
