<?xml version="1.0" encoding="UTF-8"?>
<!DOCTYPE svg PUBLIC "-//W3C//DTD SVG 1.1//EN" "http://www.w3.org/Graphics/SVG/1.1/DTD/svg11.dtd">
<!-- Creator: CorelDRAW 2020 (64-Bit Versión de evaluación) -->
<svg xmlns="http://www.w3.org/2000/svg" xml:space="preserve" width="3.7042mm" height="4.2333mm" version="1.1" style="shape-rendering:geometricPrecision; text-rendering:geometricPrecision; image-rendering:optimizeQuality; fill-rule:evenodd; clip-rule:evenodd"
viewBox="0 0 141.59 161.81"
 xmlns:xlink="http://www.w3.org/1999/xlink"
 xmlns:xodm="http://www.corel.com/coreldraw/odm/2003">
 <defs>
  <style type="text/css">
   <![CDATA[
    .fil0 {fill:#373435;fill-rule:nonzero}
   ]]>
  </style>
 </defs>
 <g id="Capa_x0020_1">
  <metadata id="CorelCorpID_0Corel-Layer"/>
  <g id="_1409158896416">
   <path id="shopping-bag.svg" class="fil0" d="M70.78 10.1c13.96,0 25.29,11.31 25.29,25.29l0 5.06 -50.58 0 0 -5.06c0,-13.96 11.33,-25.29 25.29,-25.29l0 0zm35.39 30.35l0 -5.06c0,-19.54 -15.85,-35.39 -35.39,-35.39 -19.54,0 -35.39,15.85 -35.39,35.39l0 5.06 -35.39 0 0 101.13c0,11.17 9.06,20.23 20.23,20.23l101.13 0c11.17,0 20.23,-9.06 20.23,-20.23l0 -101.13 -35.39 0 -0.02 0zm-96.07 10.1l121.36 0 0 91.01c0,5.58 -4.52,10.1 -10.13,10.1l-101.13 0c-5.58,0 -10.1,-4.54 -10.1,-10.13l0 -91.01 0 0.02z"/>
  </g>
 </g>
</svg>
