<?xml version="1.0" encoding="UTF-8"?>
<!DOCTYPE svg PUBLIC "-//W3C//DTD SVG 1.1//EN" "http://www.w3.org/Graphics/SVG/1.1/DTD/svg11.dtd">
<!-- Creator: CorelDRAW 2020 (64-Bit Versión de evaluación) -->
<svg xmlns="http://www.w3.org/2000/svg" xml:space="preserve" width="4.2334mm" height="4.7843mm" version="1.1" style="shape-rendering:geometricPrecision; text-rendering:geometricPrecision; image-rendering:optimizeQuality; fill-rule:evenodd; clip-rule:evenodd"
viewBox="0 0 423.34 478.43"
 xmlns:xlink="http://www.w3.org/1999/xlink"
 xmlns:xodm="http://www.corel.com/coreldraw/odm/2003">
 <defs>
  <style type="text/css">
   <![CDATA[
    .fil0 {fill:#FEFEFE;fill-rule:nonzero}
   ]]>
  </style>
 </defs>
 <g id="Capa_x0020_1">
  <metadata id="CorelCorpID_0Corel-Layer"/>
  <path class="fil0" d="M79.38 476.25c-14.55,0 -27.01,-5.18 -37.37,-15.54 -10.36,-10.36 -22.82,-15.54 -15.55,-37.37l0 -343.96 -26.46 0 0 -52.92 132.3 0 0 -26.46 158.75 0.01 0 26.46 132.29 -0.01 0 52.92 -26.46 0 0 343.96c0,14.55 -5.18,27.01 -15.55,37.37 -10.37,10.36 -15.55,22.82 -37.37,15.54l-264.58 0zm264.58 -396.87l-264.58 0 0 343.96 264.58 0 0 -343.96zm-211.66 291.04l52.91 0 0 -238.13 -52.91 0.01 0 238.13 0 -0.01zm105.83 0l52.92 0 0 -238.13 -52.92 0.01 0 238.13 0 -0.01zm-158.75 -291.04l0 343.96 0 -343.96z"/>
 </g>
</svg>
