<?xml version="1.0" encoding="UTF-8"?>
<!DOCTYPE svg PUBLIC "-//W3C//DTD SVG 1.1//EN" "http://www.w3.org/Graphics/SVG/1.1/DTD/svg11.dtd">
<!-- Creator: CorelDRAW 2020 (64-Bit Versión de evaluación) -->
<svg xmlns="http://www.w3.org/2000/svg" xml:space="preserve" width="176.614mm" height="176.614mm" version="1.1" style="shape-rendering:geometricPrecision; text-rendering:geometricPrecision; image-rendering:optimizeQuality; fill-rule:evenodd; clip-rule:evenodd"
viewBox="0 0 1968.59 1968.59"
 xmlns:xlink="http://www.w3.org/1999/xlink"
 xmlns:xodm="http://www.corel.com/coreldraw/odm/2003">
 <defs>
  <style type="text/css">
   <![CDATA[
    .fil0 {fill:none}
    .fil1 {fill:red}
   ]]>
  </style>
 </defs>
 <g id="Capa_x0020_1">
  <metadata id="CorelCorpID_0Corel-Layer"/>
  <circle class="fil0" cx="984.29" cy="984.29" r="984.29"/>
  <path class="fil1" d="M984.29 156.22l0 0c21.5,0 38.93,17.43 38.93,38.93 0,21.5 -17.43,38.93 -38.93,38.93l0 0c-414.33,0 -750.21,335.88 -750.21,750.21l-0 0c0,21.5 -17.43,38.93 -38.93,38.93 -21.5,0 -38.93,-17.43 -38.93,-38.93 0,-0.34 0,-0.68 0.01,-1.02 0.55,-456.52 370.52,-826.48 827.04,-827.04l0.02 -0c0.34,-0 0.67,-0.01 1,-0.01z"/>
 </g>
</svg>
